<?xml version="1.0" encoding="UTF-8"?>
<svg version="1.1" xmlns="http://www.w3.org/2000/svg" viewBox="0 0 816 788" width="816" height="788">
<path d="M0 0 C0.85052724 -0.00235223 1.70105448 -0.00470446 2.57735527 -0.00712797 C5.44067762 -0.01380965 8.30395451 -0.01336 11.16728401 -0.01294994 C13.23568418 -0.01624909 15.30408371 -0.01997477 17.37248242 -0.02409142 C23.06721906 -0.03411389 28.76194515 -0.03782862 34.45668936 -0.04048073 C40.59464625 -0.0443831 46.73259478 -0.05396155 52.87054634 -0.0626936 C66.99892731 -0.08152636 81.12730633 -0.09171487 95.25569631 -0.10015428 C102.23993306 -0.10436226 109.22416895 -0.10958409 116.20840497 -0.11483881 C140.12352329 -0.13272981 164.03864186 -0.1477245 187.95376587 -0.155159 C189.45503801 -0.15563375 190.95631016 -0.15610964 192.4575823 -0.15658666 C193.57431143 -0.15694122 193.57431143 -0.15694122 194.71360073 -0.15730295 C198.48544414 -0.15850413 202.25728754 -0.15971958 206.02913094 -0.16094494 C207.15192602 -0.16130516 207.15192602 -0.16130516 208.29740384 -0.16167267 C232.55557548 -0.16956206 256.81369817 -0.19298605 281.07184844 -0.22550088 C306.7277577 -0.25982633 332.38363833 -0.27951272 358.03957093 -0.28280324 C360.85808318 -0.28322076 363.67659542 -0.28370032 366.49510765 -0.28422642 C367.53607892 -0.28441121 367.53607892 -0.28441121 368.59807991 -0.28459973 C379.75007654 -0.28692853 390.90201618 -0.30257076 402.05399252 -0.32306826 C413.2725348 -0.3433603 424.49100995 -0.34845516 435.70957343 -0.33929763 C441.78328555 -0.33475495 447.85681324 -0.33663762 453.93050003 -0.35605907 C459.49726268 -0.37370545 465.06370657 -0.37268074 470.63047267 -0.35716178 C472.63798312 -0.35478797 474.64551573 -0.35909735 476.65299235 -0.37099043 C491.62314817 -0.45414341 505.08245476 1.03492194 518.57112312 8.13422108 C519.95170906 8.8380492 519.95170906 8.8380492 521.36018562 9.55609608 C540.20743284 19.78328449 553.45108684 36.67139171 559.88362312 57.07172108 C561.83204929 63.70623548 562.71835266 69.64018679 562.7053442 76.56309795 C562.70769643 77.41362519 562.71004866 78.26415243 562.71247217 79.14045322 C562.71915385 82.00377558 562.7187042 84.86705247 562.71829414 87.73038197 C562.72159329 89.79878214 562.72531897 91.86718167 562.72943562 93.93558037 C562.73945809 99.63031701 562.74317282 105.3250431 562.74582493 111.01978731 C562.7497273 117.1577442 562.75930575 123.29569274 562.7680378 129.43364429 C562.78687056 143.56202526 562.79705907 157.69040428 562.80549848 171.81879427 C562.80970646 178.80303101 562.81492829 185.7872669 562.82018301 192.77150292 C562.83807401 216.68662124 562.8530687 240.60173981 562.8605032 264.51686382 C562.86097795 266.01813597 562.86145384 267.51940811 562.86193086 269.02068026 C562.86228542 270.13740938 562.86228542 270.13740938 562.86264715 271.27669869 C562.86384833 275.04854209 562.86506379 278.82038549 562.86628914 282.59222889 C562.86652929 283.34075895 562.86676944 284.089289 562.86701687 284.86050179 C562.87490626 309.11867343 562.89833025 333.37679612 562.93084508 357.6349464 C562.96517053 383.29085565 562.98485692 408.94673629 562.98814744 434.60266888 C562.98856496 437.42118113 562.98904452 440.23969337 562.98957062 443.0582056 C562.98969381 443.75218645 562.989817 444.44616729 562.98994393 445.16117786 C562.99227273 456.31317449 563.00791496 467.46511413 563.02841246 478.61709047 C563.0487045 489.83563275 563.05379936 501.05410791 563.04464183 512.27267139 C563.04009915 518.3463835 563.04198182 524.4199112 563.06140327 530.49359798 C563.07904965 536.06036064 563.07802494 541.62680452 563.06250598 547.19357063 C563.06013217 549.20108108 563.06444155 551.20861368 563.07633463 553.21609031 C563.14115476 564.88575461 562.31427763 575.02112414 558.57112312 586.13422108 C558.26020157 587.07605397 558.94928001 588.01788687 557.62893659 588.98826015 C551.22623421 607.48319303 534.86161709 623.52555483 517.57112312 632.13422108 C507.07310458 636.45552631 497.01992127 639.45148241 485.65005493 639.39148998 C484.36734101 639.39674909 484.36734101 639.39674909 483.05871367 639.40211445 C480.20372471 639.4113912 477.34894141 639.40651476 474.49394417 639.40164661 C472.42209079 639.40538475 470.35023883 639.40998693 468.2783891 639.41537726 C462.59267463 639.42760251 456.90701902 639.42734734 451.2212944 639.42498851 C445.08612983 639.42458022 438.9509841 639.43562068 432.81582832 639.44510365 C420.7983365 639.46171229 408.78086965 639.46723907 396.76336937 639.4683284 C386.99349555 639.46924819 377.22362808 639.47336856 367.45375633 639.47972965 C364.63943931 639.4815248 361.82512228 639.48330443 359.01080525 639.48507941 C357.96126744 639.48574255 357.96126744 639.48574255 356.89052684 639.48641909 C337.21367011 639.49872472 317.53681558 639.50662051 297.85995483 639.50573254 C297.11834854 639.50570138 296.37674225 639.50567022 295.61266305 639.50563812 C291.85407563 639.50547191 288.09548823 639.50527383 284.33690082 639.5050687 C283.59046118 639.50502881 282.84402155 639.50498892 282.07496253 639.50494782 C280.56547953 639.50486695 279.05599653 639.50478335 277.54651352 639.50469704 C254.06868934 639.50347191 230.59092296 639.51847885 207.11311531 639.54584217 C180.72206855 639.57658835 154.33105977 639.59377311 127.93999398 639.59191573 C125.12379082 639.59176647 122.30758767 639.59166905 119.49138451 639.59160709 C118.79798966 639.59158379 118.10459482 639.59156048 117.39018801 639.59153646 C106.24957322 639.59147501 95.10900875 639.60422661 83.96840891 639.62147162 C72.76379253 639.63845651 61.5592486 639.64003763 50.35462002 639.62725298 C44.28898475 639.62072763 38.22353115 639.62059079 32.15791321 639.63795948 C26.59870589 639.65371402 21.03982395 639.65080194 15.48062445 639.63339122 C13.47592776 639.63032659 11.47120664 639.63393327 9.46653877 639.64511137 C-2.19440323 639.70579568 -12.32374185 638.87267541 -23.42887688 635.13422108 C-24.37074447 634.82330819 -25.31261206 634.51239531 -26.28302109 634.19206083 C-44.77791576 627.78887482 -60.82010883 611.4249195 -69.42887688 594.13422108 C-73.75018211 583.63620254 -76.74613821 573.58301922 -76.68614578 562.21315289 C-76.68965186 561.35801027 -76.69315793 560.50286766 -76.69677025 559.62181163 C-76.706047 556.76682267 -76.70117056 553.91203936 -76.69630241 551.05704212 C-76.70004055 548.98518875 -76.70464273 546.91333678 -76.71003306 544.84148705 C-76.72225831 539.15577258 -76.72200314 533.47011697 -76.71964431 527.78439236 C-76.71923602 521.64922779 -76.73027648 515.51408206 -76.73975945 509.37892628 C-76.75636809 497.36143446 -76.76189487 485.3439676 -76.7629842 473.32646732 C-76.76390399 463.5565935 -76.76802436 453.78672604 -76.77438545 444.01685429 C-76.7761806 441.20253727 -76.77796023 438.38822024 -76.77973521 435.5739032 C-76.7801773 434.87421133 -76.7806194 434.17451946 -76.78107489 433.4536248 C-76.79338052 413.77676807 -76.80127631 394.09991354 -76.80038834 374.42305279 C-76.80035718 373.6814465 -76.80032602 372.93984021 -76.80029392 372.175761 C-76.80012771 368.41717359 -76.79992963 364.65858618 -76.7997245 360.89999877 C-76.79968461 360.15355914 -76.79964472 359.4071195 -76.79960362 358.63806049 C-76.79952275 357.12857748 -76.79943915 355.61909448 -76.79935284 354.10961148 C-76.79812771 330.63178729 -76.81313465 307.15402091 -76.84049797 283.67621326 C-76.87124415 257.28516651 -76.88842891 230.89415773 -76.88657153 204.50309193 C-76.88642227 201.68688877 -76.88632485 198.87068562 -76.88626289 196.05448246 C-76.88623958 195.36108762 -76.88621628 194.66769277 -76.88619226 193.95328597 C-76.88613081 182.81267117 -76.89888241 171.67210671 -76.91612742 160.53150686 C-76.93311231 149.32689049 -76.93469343 138.12234656 -76.92190878 126.91771798 C-76.91538342 120.8520827 -76.91524659 114.7866291 -76.93261528 108.72101116 C-76.94836982 103.16180384 -76.94545774 97.60292191 -76.92804702 92.04372241 C-76.92498239 90.03902572 -76.92858907 88.03430459 -76.93976717 86.02963673 C-77.0176187 71.06988509 -75.52304299 57.61313669 -68.42887688 44.13422108 C-67.95965813 43.21383045 -67.49043938 42.29343983 -67.00700188 41.34515858 C-56.77981347 22.49791136 -39.89170625 9.25425736 -19.49137688 2.82172108 C-12.85686247 0.87329491 -6.92291117 -0.01300846 0 0 Z " fill="#A004DF" transform="translate(164.42887687683105,80.86577892303467)"/>
<path d="M0 0 C0.97066406 0.2165625 1.94132812 0.433125 2.94140625 0.65625 C20.35862713 4.91548305 37.11795773 13.5689422 52.12890625 23.20629883 C55.48059858 25.31086063 56.91671093 26 61 26 C62.9088717 25.13990261 62.9088717 25.13990261 64.765625 23.875 C65.48234375 23.41955811 66.1990625 22.96411621 66.9375 22.49487305 C68.0821875 21.75491089 68.0821875 21.75491089 69.25 21 C93.8248659 5.61345845 119.14857676 -3.16963544 148.375 -3.1875 C149.42171875 -3.19974609 150.4684375 -3.21199219 151.546875 -3.22460938 C176.18758709 -3.27024032 202.41318434 4.25759126 220.51953125 21.37109375 C224.19807023 25.26976577 227.10143434 29.51037384 230 34 C230.77150391 34.95519531 230.77150391 34.95519531 231.55859375 35.9296875 C233.30717205 38.44119563 234.13079535 40.83795145 235.0625 43.75 C235.38347656 44.73484375 235.70445312 45.7196875 236.03515625 46.734375 C236.35355469 47.81203125 236.67195313 48.8896875 237 50 C237.34224609 51.05799805 237.68449219 52.11599609 238.03710938 53.20605469 C239.70223253 59.9768325 239.35038111 67.03794945 239.37109375 73.96875 C239.38008172 75.53324458 239.38920388 77.09773839 239.39845276 78.66223145 C239.41488982 81.93695142 239.42263229 85.21156988 239.42553711 88.48632812 C239.43089338 92.63713703 239.46848064 96.78696003 239.51428127 100.93749237 C239.54436651 104.17048413 239.5512675 107.40324839 239.55226326 110.6363678 C239.55640916 112.16386901 239.56861006 113.69137462 239.58978081 115.21873474 C239.82791482 133.89560407 234.67580986 149.68085567 221.6640625 163.421875 C214.06260077 170.77812829 205.95349835 174.6274314 196 178 C194.97777344 178.35191406 193.95554687 178.70382812 192.90234375 179.06640625 C177.35431886 184.06772246 160.62653178 182.9905463 145 179 C144.14664062 178.80664062 143.29328125 178.61328125 142.4140625 178.4140625 C125.69837565 174.13795656 110.38345238 163.59654403 98 152 C96.65076619 150.82763205 95.29688523 149.66058186 93.9375 148.5 C86.67955307 142.14565289 80.2995499 135.30860444 74.2734375 127.78125 C71.29062926 124.13217875 68.13424121 120.66036634 64.9453125 117.19140625 C63 115 63 115 61.3671875 112.71484375 C60.91601562 112.14894531 60.46484375 111.58304687 60 111 C59.34 111 58.68 111 58 111 C56.71255886 112.45029169 55.49763224 113.96497157 54.3125 115.5 C49.60397729 121.40287969 44.52562111 126.87589132 39.31762695 132.33984375 C36.55593477 135.24437584 33.83710521 138.1412416 31.30078125 141.24609375 C29.29304002 143.64924751 27.29790716 145.70400096 24.9375 147.75 C24.28652344 148.32234375 23.63554687 148.8946875 22.96484375 149.484375 C21.05057353 150.96098901 19.19571486 152.00239236 17 153 C17 153.66 17 154.32 17 155 C14.69841393 157.11666791 12.05899062 158.83354132 9.5 160.625 C8.73333008 161.16261963 7.96666016 161.70023926 7.17675781 162.25415039 C-15.98649232 178.14383583 -41.77582705 185.7488782 -69.8125 180.9375 C-80.95701145 178.34119623 -92.45849765 173.77495727 -101 166 C-101.845625 165.236875 -102.69125 164.47375 -103.5625 163.6875 C-117.72021225 148.0777147 -122.48171383 132.13522388 -122.43359375 111.1953125 C-122.43817642 109.81875355 -122.443488 108.44219686 -122.44947815 107.06564331 C-122.45832605 104.20333467 -122.45608321 101.34130625 -122.44604492 98.47900391 C-122.4368537 95.57962184 -122.44378844 92.68104489 -122.46655273 89.78173828 C-122.70807022 58.90117688 -122.70807022 58.90117688 -118 46 C-117.67878174 45.11852295 -117.35756348 44.2370459 -117.02661133 43.32885742 C-112.84484854 32.65727132 -105.72572093 23.35385256 -97 16 C-96.34 16 -95.68 16 -95 16 C-95 15.34 -95 14.68 -95 14 C-85.61550332 8.1726469 -76.62553141 4.08367503 -66 1 C-64.22496094 0.4740625 -64.22496094 0.4740625 -62.4140625 -0.0625 C-42.68113241 -5.48115357 -19.79402282 -4.80934638 0 0 Z " fill="#EDEEF0" transform="translate(349,213)"/>
<path d="M0 0 C14.94437601 8.18146855 23.75449664 28.63807494 30.83203125 43.28125 C31.43517709 44.48554119 32.04075539 45.68861642 32.6484375 46.890625 C32.95958496 47.50671631 33.27073242 48.12280762 33.59130859 48.75756836 C33.89762207 49.3635083 34.20393555 49.96944824 34.51953125 50.59375 C36.79503469 55.09767751 38.87325493 59.63102531 40.83203125 64.28125 C41.45366405 65.71908013 42.07610515 67.15656099 42.69921875 68.59375 C49.50063995 84.40764324 54.56969568 100.44072042 59.19140625 117.01000977 C59.74400548 118.96916779 60.32268766 120.92093451 60.90625 122.87109375 C67.10310891 145.69749811 69.9987444 177.3339262 58.20703125 198.59375 C48.73053454 214.33333564 35.50554799 223.43085152 17.83203125 228.28125 C-6.46522403 233.7281699 -35.59472869 231.83835687 -57.16796875 218.90625 C-69.90737124 210.17775384 -78.3299419 197.49276302 -81.26171875 182.26171875 C-82.34602871 176.00281739 -82.47236218 169.87089818 -82.41796875 163.53125 C-82.41120117 162.38527344 -82.40443359 161.23929688 -82.39746094 160.05859375 C-82.29484578 151.6298322 -81.765908 143.5740037 -80.16796875 135.28125 C-80.04969727 134.62914551 -79.93142578 133.97704102 -79.80957031 133.30517578 C-77.44309489 120.46418635 -73.36698022 108.25454961 -69.08374023 95.94116211 C-68.26118898 93.55201364 -67.47594822 91.15431502 -66.69921875 88.75 C-57.59956406 61.38396979 -44.87765205 27.91562098 -25.16796875 6.28125 C-24.50796875 6.28125 -23.84796875 6.28125 -23.16796875 6.28125 C-23.16796875 5.62125 -23.16796875 4.96125 -23.16796875 4.28125 C-16.26292082 -0.78245181 -8.41373199 -2.78941745 0 0 Z " fill="#5100A8" transform="translate(415.16796875,359.71875)"/>
<path d="M0 0 C3.99661122 4.40442869 6.10466815 9.2350095 8.4375 14.625 C9.23543555 16.43760634 10.03361033 18.2501074 10.83203125 20.0625 C11.20924316 20.92488281 11.58645508 21.78726562 11.97509766 22.67578125 C13.15199583 25.34468801 14.38363295 27.98554847 15.625 30.625 C17.79710264 35.39155858 19.72013539 40.24707598 21.625 45.125 C21.91455566 45.86572754 22.20411133 46.60645508 22.50244141 47.36962891 C26.00338513 56.4430926 28.79099159 65.52835545 31 75 C31.17208984 75.69947754 31.34417969 76.39895508 31.52148438 77.11962891 C35.06253465 91.59134228 38.32313793 106.59428899 31.48046875 120.60546875 C27.39665938 127.21068021 21.33908994 129.5106676 14.12353516 131.5234375 C2.74224132 134.07762071 -10.98519393 132.37749922 -21.375 127.375 C-27.3737813 121.94753121 -30.79174838 116.08493555 -31.203125 108.015625 C-31.51352526 89.19263472 -27.6956493 71.37762623 -20.984375 53.7734375 C-19.90588143 50.73482467 -19.0780184 47.67846397 -18.25 44.5625 C-13.93503733 29.13016292 -7.15301027 14.30602054 0 0 Z " fill="#5100A8" transform="translate(405,412)"/>
<path d="M0 0 C5.92861999 5.00639022 8.71335357 10.40596036 10 18 C10.28117458 22.17860227 10.28053729 26.34438399 10.265625 30.53125 C10.26753845 31.7217395 10.2694519 32.912229 10.27142334 34.13879395 C10.2727796 36.64673068 10.26912234 39.15467456 10.26074219 41.66259766 C10.25003509 45.48746607 10.26065685 49.31186483 10.2734375 53.13671875 C10.27211581 55.5807302 10.26955321 58.02474135 10.265625 60.46875 C10.26967346 61.60542114 10.27372192 62.74209229 10.27789307 63.91320801 C10.22684802 72.61500257 9.71079901 79.9838755 4 87 C-1.84491543 91.31925849 -8.02632356 90.78785383 -15 90 C-31.13527075 85.22011572 -43.86824272 65.09967996 -53.72363281 52.45751953 C-57.3681792 47.78333051 -61.07542822 43.1630011 -64.8125 38.5625 C-65.33956543 37.91240967 -65.86663086 37.26231934 -66.40966797 36.5925293 C-69.49321474 32.80401893 -72.64191429 29.09634602 -75.9050293 25.46069336 C-77 24 -77 24 -77 22 C-74.69842587 19.88334308 -72.05910748 18.16626507 -69.5 16.375 C-68.73333008 15.83810547 -67.96666016 15.30121094 -67.17675781 14.74804688 C-49.85061593 2.87498289 -20.6721052 -11.52867405 0 0 Z " fill="#4000A7" transform="translate(524,259)"/>
<path d="M0 0 C0.88429688 0.40605469 1.76859375 0.81210937 2.6796875 1.23046875 C11.35506696 5.33804231 19.12603763 10.55706973 27 16 C25.47859548 19.42118944 23.46639661 22.01466733 21.0625 24.875 C17.55665707 29.0965493 14.12422025 33.36022769 10.75 37.6875 C6.11514075 43.61860453 1.40001942 49.48044798 -3.36962891 55.30371094 C-6.36413259 58.96296402 -9.26805371 62.66913526 -12.125 66.4375 C-18.5179419 74.43542098 -27.62736479 83.137438 -38.171875 84.37109375 C-43.21945938 84.55952167 -46.98179358 84.45643736 -51.625 82.375 C-57.17213356 76.82786644 -58.11096385 70.61803348 -58.16113281 63.06738281 C-58.17074036 61.89556458 -58.1803479 60.72374634 -58.19024658 59.51641846 C-58.19449646 58.25803162 -58.19874634 56.99964478 -58.203125 55.703125 C-58.20882507 54.3997821 -58.21452515 53.09643921 -58.22039795 51.75360107 C-58.23087966 48.9965374 -58.23674047 46.23950264 -58.24023438 43.48242188 C-58.24570644 39.97117962 -58.26971837 36.4603276 -58.29820633 32.94920731 C-58.3214549 29.57552165 -58.32329041 26.2018865 -58.328125 22.828125 C-58.3404718 21.57783508 -58.3528186 20.32754517 -58.36553955 19.03936768 C-58.34497016 10.92136187 -57.92737915 3.76377319 -52.8125 -2.8125 C-36.82681979 -15.24580683 -16.52232587 -8.14272332 0 0 Z " fill="#5100A8" transform="translate(340,265)"/>
</svg>
